# AST/ASF file generated using VICON BodyLanguage
# -----------------------------------------------
:version 1.10
:name VICON
:units
  mass 1.0
  length 0.45
  angle deg
:documentation
   .ast/.asf automatically generated from VICON data using
   VICON BodyBuilder and BodyLanguage model FoxedUp or BRILLIANT.MOD
:root
   order TX TY TZ RX RY RZ
   axis XYZ
   position 0 0 0  
   orientation 0 0 0 
:bonedata
  begin
     id 1 
     name lhipjoint
     direction 0.535335 -0.74333 0.401095 
     length 2.04549 
     axis 0 0 0  XYZ
  end
  begin
     id 2 
     name lfemur
     direction 0.34202 -0.939693 0  
     length 6.95643  
     axis 0 0 20  XYZ
    dof rx ry rz
    limits (-160.0 20.0)
           (-70.0 70.0)
           (-60.0 70.0)
  end
  begin
     id 3 
     name ltibia
     direction 0.34192 -0.939729 0   
     length 5.55969   
     axis 0 0 20   XYZ
    dof rx
    limits (-10.0 170.0)
  end
  begin
     id 4 
     name lfoot
     direction 0.216943 -0.596046 0.773088   
     length 2.27918   
     axis -90 7.62852e-016 20   XYZ
    dof rx rz
    limits (-45.0 90.0)
           (-70.0 20.0)
  end
  begin
     id 5 
     name ltoes
     direction 1.53519e-011 -4.21748e-011 1   
     length 1.05562   
     axis -90 7.62852e-016 20   XYZ
    dof rx
    limits (-90.0 20.0)
  end
  begin
     id 6 
     name rhipjoint
     direction -0.576368 -0.719173 0.38806   
     length 2.1142  
     axis 0 0 0  XYZ 
  end
  begin
     id 7 
     name rfemur
     direction -0.34202 -0.939693 0   
     length 7.07928   
     axis 0 0 -20   XYZ
    dof rx ry rz
    limits (-160.0 20.0)
           (-70.0 70.0)
           (-70.0 60.0)
  end
  begin
     id 8 
     name rtibia
     direction -0.34202 -0.939693 0   
     length 5.79974   
     axis 0 0 -20   XYZ
    dof rx
    limits (-10.0 170.0)
 end
 begin
     id 9 
     name rfoot
     direction -0.189288 -0.520065 0.832888   
     length 2.42173  
     axis -90 -7.62852e-016 -20   XYZ
    dof rx rz
    limits (-45.0 90.0)
           (-20.0 70.0)
  end
  begin
     id 10 
     name rtoes
     direction -1.53574e-011 -4.21658e-011 1   
     length 1.14469   
     axis -90 -7.62852e-016 -20   XYZ
    dof rx
    limits (-90.0 20.0)
  end
  begin
     id 11 
     name lowerback
     direction -0.00135702 0.993803 0.111144   
     length 1.91308   
     axis 0 0 0   XYZ
    dof rx ry rz
    limits (-20.0 45.0)
           (-30.0 30.0)
           (-30.0 30.0)
  end
  begin
     id 12 
     name upperback
     direction -0.0056745 0.999813 0.0184631   
     length 1.9212   
     axis 0 0 0   XYZ
    dof rx ry rz
    limits (-20.0 45.0)
           (-30.0 30.0)
           (-30.0 30.0)
  end
  begin
     id 13 
     name thorax
     direction -0.00733434 0.999426 -0.0330788   
     length 1.94196   
     axis 0 0 0   XYZ
    dof rx ry rz
    limits (-20.0 45.0)
           (-30.0 30.0)
           (-30.0 30.0)
  end
  begin
     id 14 
     name lowerneck
     direction 0.0563074 0.996944 -0.0541571   
     length 2.34257   
     axis 0 0 0   XYZ
    dof rx ry rz
    limits (-20.0 45.0)
           (-30.0 30.0)
           (-30.0 30.0)
  end
  begin
     id 15 
     name upperneck
     direction -0.0544519 0.976166 -0.210085   
     length 2.32506   
     axis 0 0 0   XYZ
    dof rx ry rz
    limits (-20.0 45.0)
           (-30.0 30.0)
           (-30.0 30.0)
  end
  begin
     id 16
     name head
     direction -0.0226035 0.997615 -0.0652205  
     length 2.3648  
     axis 0 0 0   XYZ
    dof rx ry rz
    limits (-20.0 45.0)
           (-30.0 30.0)
           (-30.0 30.0)
  end
  begin
     id 17 
     name lclavicle
     direction 0.92109 0.381297 -0.0787716  
     length 4.0487  
     axis 0 0 0   XYZ
    dof ry rz
    limits (-20.0 10.0)
           (0.0 20.0)
  end
  begin
     id 18 
     name lhumerus
     direction 1 -4.48986e-011 3.56724e-027   
     length 4.94991   
     axis 180 -30 -90   XYZ
    dof rx ry rz
    limits (-60.0 90.0)
           (-90.0 90.0)
           (-90.0 90.0)
  end
  begin
     id 19
     name lradius
     direction 1 -4.48981e-011 8.62147e-027   
     length 2.7606   
     axis 180 -30 -90   XYZ
    dof rx
    limits (-10.0 170.0)
  end
  begin
     id 20
     name lwrist
     direction 1 -4.48989e-011 1.59799e-026   
     length 1.3803   
     axis -1.17785e-014 90 90   XYZ
    dof ry
    limits (-180.0 0.0)
 end
  begin
     id 21 
     name lhand
     direction 1 -4.48896e-011 3.19599e-026   
     length 0.843936   
     axis -2.03931e-014 90 90   XYZ
    dof rx rz
    limits (-90.0 90.0)
           (-45.0 45.0)
  end
  begin
     id 22 
     name lfingers
     direction 1 -4.48887e-011 6.39197e-026   
     length 0.680403   
     axis -4.07862e-014 90 90   XYZ
    dof rx
    limits (0.0 90.0)
  end
  begin
     id 23
     name lthumb
     direction 0.707107 -6.348e-011 0.707107   
     length 0.976926   
     axis -90 45 2.85299e-015   XYZ
    dof rx rz
    limits (-45.0 45.0)
           (-45.0 45.0)
  end
  begin
     id 24 
     name rclavicle
     direction -0.951104 0.307692 -0.026953   
     length 4.21801  
     axis 0 0 0   XYZ 
    dof ry rz
    limits (-10.0 20.0)
           (-20.0 0.0)
  end
  begin
     id 25 
     name rhumerus
     direction -1 -4.4896e-011 -1.8171e-018  
     length 4.32982   
     axis 180 30 90   XYZ
    dof rx ry rz
    limits (-90.0 60.0)
           (-90.0 90.0)
           (-90.0 90.0)
  end
  begin
     id 26 
     name rradius
     direction -1 -4.48959e-011 8.25165e-027   
     length 3.20057   
     axis 180 30 90   XYZ
    dof rx
    limits (-10.0 170.0)
  end
  begin
     id 27 
     name rwrist
     direction -1 -4.48997e-011 1.59799e-026   
     length 1.60029   
     axis -1.17785e-014 -90 -90   XYZ
    dof ry
    limits (-180.0 0.0)
  end
  begin
     id 28
     name rhand
     direction -1 -4.49023e-011 3.19599e-026   
     length 0.960433   
     axis -2.03931e-014 -90 -90   XYZ
    dof rx rz
    limits (-90.0 90.0)
           (-45.0 45.0)
  end
  begin
     id 29
     name rfingers
     direction -1 -4.48802e-011 6.39197e-026   
     length 0.774326   
     axis -4.07862e-014 -90 -90   XYZ
    dof rx
    limits (0.0 90.0)
  end
  begin
     id 30
     name rthumb
     direction -0.707107 -6.34876e-011 0.707107   
     length 1.11178   
     axis -90 -45 -2.85299e-015   XYZ
    dof rx rz
    limits (-45.0 45.0)
           (-45.0 45.0)
  end
:hierarchy
  begin
    root lhipjoint rhipjoint lowerback
    lhipjoint lfemur
    lfemur ltibia
    ltibia lfoot
    lfoot ltoes
    rhipjoint rfemur
    rfemur rtibia
    rtibia rfoot
    rfoot rtoes
    lowerback upperback
    upperback thorax
    thorax lowerneck lclavicle rclavicle
    lowerneck upperneck
    upperneck head
    lclavicle lhumerus
    lhumerus lradius
    lradius lwrist
    lwrist lhand lthumb
    lhand lfingers
    rclavicle rhumerus
    rhumerus rradius
    rradius rwrist
    rwrist rhand rthumb
    rhand rfingers
end

#!OML:ASF C:\KaitlinTest1\Natural Motions\Nikki\Session 2\Nikki.ASF
:FULLY-SPECIFIED
:DEGREES
79
root -13.2513 16.5393 4.86364 -83.2782 87.7977 -91.2132
lowerback -10.3329 -1.89011 2.50696
upperback -3.64008 -2.61919 -0.515963
thorax 1.85938 -1.26731 -2.24557
lowerneck -5.69591 -10.3314 -10.3073
upperneck 6.13936 42.0292 5.86216
head 167.431 62.9675 -37.8909
rclavicle 7.03201e-015 5.1684e-015
rhumerus -37.832 -21.922 -83.088
rradius 18.7995
rwrist 19.3837
rhand -35.4709 2.72483
rfingers 7.12502
rthumb -8.59921 -27.08
lclavicle 7.03201e-015 5.1684e-015
lhumerus -40.4564 14.5819 82.1078
lradius 21.8224
lwrist -42.4199
lhand -34.1837 3.55333
lfingers 7.12502
lthumb -7.35687 33.4054
rfemur -5.19278 -15.767 21.6795
rtibia 11.3387
rfoot -11.0339 9.20725
rtoes -1.11319e-014
lfemur -12.3593 15.3409 -16.9873
ltibia 20.5945
lfoot -8.28557 -16.5611
ltoes 2.06736e-014
80
root -13.2516 16.5389 4.86311 -83.282 87.8238 -91.1978
lowerback -10.2927 -1.89064 2.48392
upperback -3.63906 -2.61662 -0.532227
thorax 1.83888 -1.26653 -2.24761
lowerneck -5.66032 -10.3386 -10.3007
upperneck 6.1489 42.0198 5.86639
head 167.435 62.9281 -37.8693
rclavicle -4.30866e-014 -2.38542e-015
rhumerus -37.7399 -21.7505 -83.2523
rradius 18.8276
rwrist 19.3985
rhand -35.5745 2.96146
rfingers 7.12502
rthumb -8.6992 -26.8393
lclavicle -4.30866e-014 -2.38542e-015
lhumerus -40.4365 14.4212 82.1472
lradius 21.8585
lwrist -42.4575
lhand -34.1153 3.56625
lfingers 7.12502
lthumb -7.29082 33.4206
rfemur -5.16685 -15.7553 21.6419
rtibia 11.3451
rfoot -11.0603 9.19435
rtoes -3.97569e-014
lfemur -12.341 15.3603 -17.0127
ltibia 20.5996
lfoot -8.32675 -16.5557
ltoes 3.49861e-014
81
root -13.2521 16.5391 4.86338 -82.917 87.7951 -90.8461
lowerback -10.3012 -1.88121 2.50004
upperback -3.62841 -2.60658 -0.52568
thorax 1.8547 -1.26134 -2.24936
lowerneck -5.65273 -10.3217 -10.3177
upperneck 6.14319 42.0209 5.87725
head 167.579 62.9025 -37.7663
rclavicle 1.27719e-014 6.36111e-015
rhumerus -37.674 -21.5299 -83.4132
rradius 18.9413
rwrist 19.4334
rhand -35.5437 3.05602
rfingers 7.12502
rthumb -8.6695 -26.746
lclavicle 1.27719e-014 6.36111e-015
lhumerus -40.3526 14.2071 82.2257
lradius 21.8467
lwrist -42.4979
lhand -34.0538 3.56473
lfingers 7.12502
lthumb -7.23152 33.4212
rfemur -5.19571 -15.756 21.6838
rtibia 11.3511
rfoot -11.0504 9.19371
rtoes 5.00937e-014
lfemur -12.3703 15.393 -16.9872
ltibia 20.6028
lfoot -8.28999 -16.5812
ltoes 1.27222e-014
82
root -13.2508 16.5394 4.8628 -83.1391 87.7709 -91.0885
lowerback -10.3223 -1.88793 2.53175
upperback -3.61977 -2.61947 -0.522386
thorax 1.87316 -1.26755 -2.26624
lowerneck -5.65107 -10.3217 -10.3078
upperneck 6.12642 41.9685 5.8656
head 167.563 62.935 -37.7635
rclavicle 2.64135e-014 -1.98785e-015
rhumerus -37.5835 -21.1616 -83.6478
rradius 19.0484
rwrist 19.381
rhand -35.5325 3.04515
rfingers 7.12502
rthumb -8.65864 -26.7573
lclavicle 2.64135e-014 -1.98785e-015
lhumerus -40.2891 14.0702 82.2699
lradius 21.894
lwrist -42.5598
lhand -33.9116 3.51795
lfingers 7.12502
lthumb -7.09424 33.3791
rfemur -5.20477 -15.8166 21.7145
rtibia 11.3267
rfoot -11.0636 9.2639
rtoes 2.70347e-014
lfemur -12.397 15.4257 -16.9685
ltibia 20.628
lfoot -8.34091 -16.623
ltoes 1.74931e-014
83
root -13.2515 16.5398 4.863 -83.5011 87.7903 -91.4178
lowerback -10.2622 -1.88639 2.49783
upperback -3.61912 -2.61306 -0.527752
thorax 1.84265 -1.26499 -2.24966
lowerneck -5.61493 -10.3068 -10.3341
upperneck 6.15052 42.0307 5.89443
head 167.732 62.8348 -37.644
rclavicle 5.66536e-015 -5.56597e-015
rhumerus -37.5242 -20.8924 -83.8348
rradius 19.1695
rwrist 19.2455
rhand -35.5285 3.08649
rfingers 7.12502
rthumb -8.65478 -26.7161
lclavicle 5.66536e-015 -5.56597e-015
lhumerus -40.2481 13.7116 82.4473
lradius 22.0031
lwrist -42.3465
lhand -33.8122 3.51318
lfingers 7.12502
lthumb -6.99831 33.3775
rfemur -5.15954 -15.7798 21.6874
rtibia 11.3086
rfoot -11.0375 9.20262
rtoes 6.36111e-015
lfemur -12.3773 15.3976 -16.9712
ltibia 20.6494
lfoot -8.34053 -16.615
ltoes 1.59028e-014
84
root -13.2511 16.5383 4.86267 -83.488 87.7544 -91.3906
lowerback -10.2338 -1.87994 2.53847
upperback -3.61633 -2.60855 -0.515871
thorax 1.82885 -1.26324 -2.25859
lowerneck -5.58432 -10.3092 -10.3511
upperneck 6.15175 42.0114 5.88622
head 167.744 62.7997 -37.6125
rclavicle -1.16538e-014 -5.56597e-015
rhumerus -37.4192 -20.491 -84.0883
rradius 19.2792
rwrist 19.0357
rhand -35.522 3.07155
rfingers 7.12502
rthumb -8.64852 -26.7313
lclavicle -1.16538e-014 -5.56597e-015
lhumerus -40.1809 13.5321 82.5251
lradius 21.9956
lwrist -42.3404
lhand -33.738 3.40931
lfingers 7.12502
lthumb -6.92662 33.276
rfemur -5.18291 -15.749 21.7213
rtibia 11.4199
rfoot -11.1119 9.1515
rtoes 0
lfemur -12.3351 15.3957 -16.9232
ltibia 20.6106
lfoot -8.28314 -16.6012
ltoes 2.54444e-014
85
root -13.2517 16.5387 4.86195 -82.8353 87.7473 -90.7468
lowerback -10.2227 -1.86342 2.553
upperback -3.60109 -2.58846 -0.525469
thorax 1.83859 -1.25333 -2.27439
lowerneck -5.6122 -10.3186 -10.3302
upperneck 6.15401 42.047 5.90229
head 167.809 62.715 -37.573
rclavicle -4.11236e-014 -8.74653e-015
rhumerus -37.3158 -20.2124 -84.2883
rradius 19.4198
rwrist 19.2024
rhand -35.4676 3.11554
rfingers 7.12502
rthumb -8.59606 -26.6895
lclavicle -4.11236e-014 -8.74653e-015
lhumerus -40.0907 13.2876 82.6196
lradius 22.0646
lwrist -42.3093
lhand -33.7331 3.27656
lfingers 7.12502
lthumb -6.92191 33.1434
rfemur -5.30228 -15.8059 21.7297
rtibia 11.6326
rfoot -11.2351 9.22202
rtoes -4.13472e-014
lfemur -12.2999 15.4222 -16.9246
ltibia 20.5167
lfoot -8.24317 -16.5999
ltoes -2.38542e-014
86
root -13.2627 16.5444 4.86007 -79.7313 88.0704 -87.9462
lowerback -10.3365 -1.8615 2.24934
upperback -3.72852 -2.54875 -0.615625
thorax 1.78081 -1.23213 -2.1943
lowerneck -5.60549 -10.3177 -10.3269
upperneck 6.16072 42.0612 5.91075
head 167.832 62.6977 -37.559
rclavicle -3.72224e-014 -1.11319e-014
rhumerus -37.2243 -19.698 -84.5955
rradius 19.5682
rwrist 19.0055
rhand -35.4439 3.13441
rfingers 7.12502
rthumb -8.57316 -26.6715
lclavicle -3.72224e-014 -1.11319e-014
lhumerus -40.0018 12.7298 82.8916
lradius 22.1826
lwrist -41.8672
lhand -33.589 3.28313
lfingers 7.12502
lthumb -6.78284 33.1545
rfemur -5.81385 -16.4705 21.3695
rtibia 11.8656
rfoot -11.388 9.95049
rtoes 2.62396e-014
lfemur -12.6052 15.3962 -17.4804
ltibia 20.4158
lfoot -8.19105 -16.5089
ltoes 8.42847e-014
87
root -13.2676 16.5488 4.86093 -76.3873 88.287 -84.7969
lowerback -10.4559 -1.85288 1.99828
upperback -3.77501 -2.50961 -0.674398
thorax 1.80881 -1.21027 -2.11337
lowerneck -5.61837 -10.3278 -10.3154
upperneck 6.12713 41.9752 5.89413
head 167.839 62.7528 -37.5423
rclavicle -6.63444e-015 -7.95139e-016
rhumerus -37.0402 -19.0786 -84.9988
rradius 19.7593
rwrist 18.5637
rhand -35.4494 3.02983
rfingers 7.12502
rthumb -8.57846 -26.7759
lclavicle -6.63444e-015 -7.95139e-016
lhumerus -40.0007 12.7493 82.8132
lradius 22.4518
lwrist -42.2095
lhand -33.3134 3.22891
lfingers 7.12502
lthumb -6.51678 33.1086
rfemur -6.20039 -16.8263 21.1479
rtibia 12.1121
rfoot -11.5304 10.3573
rtoes -4.45278e-014
lfemur -12.772 15.3397 -17.8365
ltibia 20.3002
lfoot -8.13607 -16.3712
ltoes 2.06736e-014
88
root -13.2692 16.5486 4.8613 -77.3743 88.31 -85.7836
lowerback -10.4088 -1.8684 1.96016
upperback -3.77177 -2.52624 -0.672203
thorax 1.78741 -1.21885 -2.08984
lowerneck -5.66586 -10.3701 -10.277
upperneck 6.11794 41.9494 5.86426
head 167.589 62.779 -37.7168
rclavicle -2.23633e-016 -3.97569e-015
rhumerus -36.9171 -18.4091 -85.3976
rradius 20.0468
rwrist 18.2669
rhand -35.4047 2.79574
rfingers 7.12502
rthumb -8.53532 -27.0117
lclavicle -2.23633e-016 -3.97569e-015
lhumerus -39.8767 12.4992 82.9183
lradius 22.5053
lwrist -42.0637
lhand -33.1049 3.08636
lfingers 7.12502
lthumb -6.31551 32.9722
rfemur -6.29948 -16.8539 21.1282
rtibia 12.3351
rfoot -11.6245 10.3281
rtoes 4.69132e-014
lfemur -12.7423 15.374 -17.861
ltibia 20.2005
lfoot -8.07141 -16.4473
ltoes 3.02153e-014
89
root -13.2708 16.5488 4.86177 -76.7779 88.3209 -85.2063
lowerback -10.417 -1.84552 1.95211
upperback -3.7411 -2.49583 -0.69922
thorax 1.82438 -1.20348 -2.11091
lowerneck -5.6766 -10.3868 -10.2618
upperneck 6.07766 41.8497 5.85306
head 167.671 62.7914 -37.6392
rclavicle -4.01297e-014 -5.56597e-015
rhumerus -36.703 -17.8153 -85.7996
rradius 20.2234
rwrist 18.0418
rhand -35.3907 2.49963
rfingers 7.12502
rthumb -8.52188 -27.3084
lclavicle -4.01297e-014 -5.56597e-015
lhumerus -39.6716 11.9413 83.1243
lradius 22.6397
lwrist -41.7774
lhand -32.9591 3.07641
lfingers 7.12502
lthumb -6.1747 32.9664
rfemur -6.37233 -16.7763 21.1199
rtibia 12.4469
rfoot -11.6684 10.2614
rtoes -4.29375e-014
lfemur -12.7492 15.3631 -17.8789
ltibia 20.1501
lfoot -7.9986 -16.4292
ltoes -5.725e-014
90
root -13.2712 16.5496 4.86126 -75.8391 88.3017 -84.2812
lowerback -10.3942 -1.83249 1.95569
upperback -3.72686 -2.47973 -0.691184
thorax 1.82772 -1.19562 -2.10224
lowerneck -5.70731 -10.3905 -10.2659
upperneck 6.0538 41.8183 5.8402
head 167.705 62.7819 -37.6088
rclavicle 7.20594e-016 1.03368e-014
rhumerus -36.5531 -17.2881 -86.1136
rradius 20.4432
rwrist 17.9514
rhand -35.3424 2.40892
rfingers 7.12502
rthumb -8.47525 -27.401
lclavicle 7.20594e-016 1.03368e-014
lhumerus -39.4969 11.4298 83.349
lradius 22.7573
lwrist -41.3977
lhand -32.7599 3.05682
lfingers 7.12502
lthumb -5.9824 32.9524
rfemur -6.41279 -16.7433 21.1419
rtibia 12.476
rfoot -11.6732 10.2489
rtoes 5.96354e-014
lfemur -12.7611 15.3747 -17.8724
ltibia 20.1461
lfoot -8.02629 -16.401
ltoes 4.77083e-014
